<svg xmlns="http://www.w3.org/2000/svg" width="309.3125" height="309.3125" shape-rendering="geometricPrecision"><g transform="scale(1.208251953125,1.208251953125)" stroke-width=".05%"><g fill="#1a181b"><path d=" M 108.06 30.10 C 110.36 23.80 116.27 20.04 120.75 15.39 C 121.85 22.03 121.58 28.79 120.33 35.38 C 125.69 35.27 131.05 35.28 136.40 35.38 C 135.13 28.81 135.02 22.06 135.97 15.43 C 140.64 19.91 146.21 23.87 148.85 29.99 C 168.14 34.14 186.53 43.48 200.14 57.93 C 212.32 69.78 220.94 85.07 225.47 101.41 C 227.28 108.96 234.76 112.84 239.35 118.56 C 232.73 119.88 225.96 119.41 219.36 118.24 C 219.73 124.45 219.73 130.68 219.23 136.88 C 226.02 136.33 232.84 136.06 239.62 136.82 C 235.13 142.65 227.34 146.44 226.12 154.30 C 218.26 186.61 192.89 213.87 161.41 224.38 C 157.17 225.93 152.53 226.33 148.52 228.43 C 144.06 231.83 140.63 236.38 136.46 240.12 C 135.01 233.64 135.39 226.98 136.66 220.51 C 131.20 220.58 125.75 220.52 120.30 220.38 C 121.54 226.97 121.96 233.73 120.58 240.33 C 117.82 237.80 115.10 235.21 112.54 232.47 C 110.37 230.26 108.22 227.67 105.02 227.02 C 97.96 225.10 90.79 223.25 84.28 219.79 C 75.78 215.33 67.24 210.49 60.47 203.56 C 55.47 198.50 50.15 193.66 46.23 187.68 C 40.13 178.57 34.67 168.81 32.05 158.08 C 30.95 154.66 30.79 150.64 28.09 147.98 C 24.57 144.39 20.85 141.00 17.46 137.27 C 24.12 136.00 30.92 136.41 37.57 137.54 C 37.19 131.12 37.15 124.69 37.62 118.27 C 30.98 119.42 24.18 119.89 17.54 118.51 C 21.44 114.06 26.18 110.38 29.88 105.76 C 32.57 100.08 33.37 93.67 36.10 87.98 C 39.33 81.11 43.31 74.62 47.51 68.31 C 51.85 62.45 57.32 57.57 62.46 52.44 C 67.21 47.61 73.24 44.43 78.97 40.95 C 87.92 35.64 97.86 32.11 108.06 30.10 M 148.07 33.19 C 148.24 35.59 148.41 38.00 148.60 40.40 C 150.99 41.52 153.39 42.62 155.80 43.71 C 158.63 41.89 161.42 40.02 164.15 38.05 C 158.91 36.05 153.52 34.49 148.07 33.19 M 93.11 37.99 C 96.52 40.40 100.57 44.44 105.07 42.05 C 109.05 41.04 108.38 36.34 108.85 33.17 C 103.51 34.45 98.23 36.00 93.11 37.99 M 90.84 38.85 C 90.01 42.33 90.89 45.90 91.37 49.36 C 93.75 47.94 96.12 46.50 98.49 45.06 C 96.49 42.64 94.57 40.10 92.04 38.22 L 90.84 38.85 M 158.85 45.25 C 161.32 46.86 163.80 48.44 166.29 50.01 C 166.73 46.62 167.22 43.24 167.70 39.86 C 167.00 39.46 165.60 38.65 164.90 38.25 C 162.87 40.57 160.86 42.91 158.85 45.25 M 68.39 52.14 C 69.70 55.80 71.07 59.43 72.52 63.04 C 74.97 61.10 77.41 59.14 79.84 57.18 C 76.83 55.08 73.83 52.96 70.88 50.77 C 75.62 52.05 80.43 54.24 85.45 53.51 C 88.31 49.52 88.70 44.42 89.75 39.77 C 81.80 42.28 74.97 47.17 68.39 52.14 M 167.86 39.84 C 168.08 44.71 169.34 49.45 171.33 53.89 C 176.51 53.75 181.56 52.41 186.25 50.21 C 180.48 46.16 174.55 42.21 167.86 39.84 M 116.82 48.85 C 113.39 52.73 112.06 57.99 109.24 62.29 C 97.73 81.18 81.47 97.19 62.32 108.27 C 58.71 110.43 54.63 111.77 51.26 114.30 C 50.21 115.97 50.16 118.05 49.88 119.95 C 49.33 127.11 49.58 134.32 50.69 141.42 C 78.64 154.29 102.22 176.92 115.20 204.92 C 116.18 207.76 119.49 207.77 121.98 208.00 C 128.36 208.12 134.82 207.83 141.09 206.55 C 147.49 191.32 157.48 177.77 169.42 166.43 C 180.00 155.84 192.66 147.51 206.29 141.38 C 207.91 132.29 207.24 122.93 205.72 113.88 C 184.18 104.65 165.91 88.65 152.32 69.70 C 147.53 63.16 144.04 55.83 140.38 48.64 C 132.63 47.60 124.42 46.57 116.82 48.85 M 178.07 57.32 C 179.76 60.05 182.70 61.57 185.29 63.31 C 186.43 60.06 187.53 56.79 188.55 53.50 C 188.51 58.28 188.63 63.06 189.17 67.81 C 194.17 68.52 199.24 68.64 204.28 68.21 C 199.88 61.27 193.50 55.93 187.00 51.03 C 183.95 53.02 180.75 54.84 178.07 57.32 M 55.44 101.23 C 65.97 96.60 75.15 89.37 83.42 81.46 C 91.47 73.11 98.66 63.74 103.45 53.12 C 82.79 63.28 65.31 80.37 55.44 101.23 M 153.13 53.02 C 157.65 62.31 163.41 71.02 170.57 78.49 C 179.35 87.83 189.54 96.11 201.39 101.21 C 191.25 80.38 173.93 63.19 153.13 53.02 M 52.78 68.33 C 57.67 68.65 62.60 68.49 67.43 67.60 C 67.59 62.73 67.62 57.84 67.26 52.97 C 61.85 57.47 56.29 62.11 52.78 68.33 M 50.96 68.11 C 51.56 72.67 54.71 76.15 57.28 79.75 C 59.21 77.29 61.15 74.83 63.09 72.38 C 59.24 70.45 55.17 68.99 50.96 68.11 M 194.01 72.74 C 196.00 75.29 197.98 77.85 199.99 80.38 C 202.06 77.46 204.12 74.53 206.17 71.59 C 204.55 76.38 203.28 81.32 203.16 86.41 C 207.20 88.06 211.40 89.31 215.69 90.19 C 212.70 90.59 209.73 91.05 206.75 91.52 C 208.27 94.24 209.77 96.97 211.30 99.69 C 213.37 97.84 215.35 95.88 217.02 93.65 C 217.47 94.12 217.91 94.59 218.35 95.08 C 215.20 97.73 213.22 101.44 213.04 105.58 C 216.42 106.25 219.83 106.69 223.26 106.94 C 222.33 102.33 220.73 97.86 220.25 93.16 C 219.84 93.08 219.03 92.93 218.62 92.85 C 216.04 83.93 210.88 76.03 205.14 68.82 C 201.38 69.98 197.67 71.28 194.01 72.74 M 39.72 89.88 C 44.52 89.04 49.21 87.66 53.64 85.65 C 52.57 81.04 51.76 76.31 49.79 71.97 C 45.07 77.00 41.71 83.29 39.72 89.88 M 37.62 90.48 C 39.34 94.19 42.44 96.85 45.70 99.17 C 47.23 96.40 48.71 93.61 50.13 90.78 C 45.96 90.50 41.79 90.34 37.62 90.48 M 36.78 95.29 C 35.66 99.14 34.51 102.99 33.34 106.82 C 36.68 106.64 40.01 106.32 43.32 105.84 C 42.72 101.93 40.90 98.41 38.63 95.21 C 38.17 95.23 37.24 95.27 36.78 95.29 M 33.05 148.73 C 34.07 154.03 35.52 159.24 37.70 164.19 C 40.47 159.94 45.77 154.96 42.48 149.57 C 39.33 149.34 36.19 149.03 33.05 148.73 M 212.77 153.05 C 212.37 157.03 215.80 160.13 217.56 163.42 C 215.22 161.52 212.88 159.61 210.55 157.71 C 209.13 160.50 207.82 163.35 206.64 166.25 C 210.53 166.52 214.43 166.71 218.33 166.79 C 220.80 160.83 222.98 154.71 223.97 148.31 C 220.19 149.12 213.90 148.07 212.77 153.05 M 153.26 202.40 C 174.25 192.44 191.80 175.06 201.68 154.01 C 180.77 164.21 163.63 181.62 153.26 202.40 M 55.44 154.28 C 65.10 175.35 82.73 192.41 103.40 202.67 C 93.67 181.63 76.10 164.58 55.44 154.28 M 46.40 157.92 C 43.73 160.20 41.07 162.47 38.39 164.74 C 38.47 165.64 38.55 166.53 38.64 167.43 C 42.52 167.01 46.41 166.61 50.31 166.30 C 49.11 163.46 47.80 160.67 46.40 157.92 M 203.06 171.63 C 203.65 176.76 204.89 181.79 206.88 186.55 C 211.76 180.84 215.30 174.13 218.04 167.17 C 212.93 168.23 207.92 169.72 203.06 171.63 M 39.68 168.40 C 41.85 175.20 45.76 181.25 50.10 186.86 C 51.76 182.15 52.97 177.31 53.77 172.39 C 49.24 170.54 44.51 169.18 39.68 168.40 M 199.54 178.17 C 197.53 180.18 195.92 182.56 194.23 184.84 C 198.33 186.57 202.57 188.00 206.96 188.83 C 204.97 185.04 203.33 180.52 199.54 178.17 M 50.35 188.52 C 54.82 188.82 58.87 186.49 62.98 185.11 C 61.06 182.66 59.12 180.22 57.15 177.81 C 54.70 181.25 52.02 184.60 50.35 188.52 M 189.45 189.39 C 188.72 194.41 188.52 199.50 189.04 204.56 C 195.71 200.91 200.85 194.98 205.03 188.74 C 199.83 188.50 194.61 188.64 189.45 189.39 M 52.68 190.47 C 57.19 195.84 62.17 200.82 67.57 205.30 C 68.65 200.31 68.44 195.19 67.52 190.20 C 62.60 189.34 57.57 189.40 52.68 190.47 M 72.39 194.76 C 70.64 198.75 68.66 202.86 69.06 207.35 C 72.80 205.24 76.28 202.72 79.60 200.00 C 77.22 198.23 74.81 196.49 72.39 194.76 M 177.27 200.08 C 180.89 202.81 184.62 205.43 188.83 207.17 C 188.28 202.67 186.63 198.44 184.75 194.35 C 182.26 196.26 179.77 198.17 177.27 200.08 M 71.84 207.77 C 76.63 212.84 83.32 215.68 89.68 218.26 C 88.87 213.40 87.47 208.68 85.62 204.13 C 80.89 204.66 76.10 205.51 71.84 207.77 M 168.19 218.27 C 174.60 214.94 181.36 211.96 186.66 206.93 C 181.79 205.18 176.78 203.88 171.66 203.15 C 169.59 207.93 167.95 212.99 168.19 218.27 M 91.50 206.95 C 90.64 211.38 89.97 215.98 91.41 220.37 C 94.37 217.55 96.97 214.40 99.44 211.15 C 96.79 209.76 94.14 208.35 91.50 206.95 M 157.82 210.82 C 160.00 213.51 162.23 216.18 164.50 218.81 C 165.57 218.66 166.65 218.52 167.72 218.38 C 167.22 214.49 166.71 210.60 166.28 206.71 C 163.43 208.02 160.61 209.38 157.82 210.82 M 92.73 219.64 C 97.87 222.01 103.36 223.44 108.84 224.75 C 108.53 220.83 109.57 214.69 104.44 213.55 C 99.85 213.37 96.36 217.34 92.73 219.64 M 148.55 215.52 C 148.45 218.60 148.30 221.68 148.18 224.76 C 153.70 223.28 159.33 222.01 164.44 219.38 C 161.33 217.27 158.37 214.73 154.77 213.50 C 152.46 212.77 150.49 214.59 148.55 215.52 Z"/></g></g><g transform="scale(1.208251953125,1.208251953125)" stroke-width=".05%"><g fill="#363672"><path d=" M 139.31 56.26 C 141.16 52.54 145.19 50.98 148.92 49.86 C 151.97 50.79 155.25 51.24 158.07 52.88 C 161.08 54.49 163.30 57.14 165.56 59.62 C 166.19 59.59 167.45 59.54 168.08 59.52 C 170.24 60.85 172.12 62.56 173.53 64.68 C 170.94 64.40 168.38 63.92 165.79 63.78 C 163.97 65.56 162.66 67.88 160.50 69.29 C 158.04 70.49 155.27 70.79 152.65 71.54 C 152.62 72.03 152.55 73.01 152.52 73.50 C 154.08 77.80 155.06 82.37 155.34 86.93 C 154.52 93.67 153.18 101.15 147.77 105.83 C 141.25 112.47 133.77 118.19 125.47 122.45 C 122.47 124.10 119.18 125.28 116.45 127.40 C 112.10 130.47 109.37 135.34 104.66 137.98 C 104.42 133.06 105.54 128.18 107.57 123.73 C 109.63 119.31 113.72 116.45 116.61 112.63 C 120.21 109.26 123.71 105.79 126.65 101.81 C 131.75 96.70 133.92 89.19 132.45 82.14 C 130.64 78.30 127.85 75.05 125.19 71.78 C 130.93 67.68 136.03 62.57 139.31 56.26 Z"/><path d=" M 76.18 52.29 C 76.69 52.40 77.70 52.62 78.20 52.73 C 83.09 55.91 89.00 56.60 94.50 58.15 C 99.64 59.03 104.19 61.68 108.86 63.86 C 113.22 65.90 117.47 68.95 119.44 73.51 C 123.29 81.29 125.37 91.06 121.09 99.11 C 119.26 102.28 117.29 105.43 114.84 108.16 C 114.27 108.28 113.13 108.51 112.56 108.63 C 112.69 103.99 111.79 99.37 109.78 95.17 C 106.62 88.07 101.10 82.57 95.71 77.14 C 93.09 75.09 89.94 73.82 87.36 71.70 C 81.07 67.14 78.03 59.57 76.18 52.29 Z"/><path d=" M 197.07 52.49 C 197.26 52.70 197.65 53.12 197.84 53.33 C 197.64 68.51 186.60 80.54 175.15 89.16 C 169.72 93.50 163.02 95.68 157.30 99.53 C 160.07 94.45 160.27 88.49 160.23 82.84 C 159.68 79.83 158.99 76.84 158.18 73.89 C 161.27 73.73 164.41 73.86 167.46 73.21 C 173.32 71.24 178.92 68.56 184.16 65.29 C 189.72 62.56 193.95 57.74 197.07 52.49 Z"/></g><g fill="#7d4e00"><path d=" M 47.40 27.79 C 55.34 34.42 63.33 41.07 70.50 48.54 C 72.71 54.20 72.37 60.88 76.12 66.00 C 80.37 73.93 88.77 77.91 95.22 83.72 C 98.18 86.43 100.82 89.50 103.22 92.71 C 106.95 97.76 108.45 104.03 109.24 110.15 C 108.75 109.81 107.76 109.14 107.27 108.80 C 105.86 104.38 103.26 100.42 99.90 97.23 C 92.09 89.47 80.70 87.47 71.93 81.11 C 67.59 77.80 62.96 74.70 59.50 70.42 C 55.30 64.53 51.60 58.13 49.86 51.05 C 47.73 43.49 47.64 35.59 47.40 27.79 Z"/><path d=" M 200.34 56.36 C 207.29 47.98 214.57 39.89 221.49 31.49 C 221.51 37.42 222.20 43.41 221.16 49.30 C 219.20 57.18 218.19 65.56 213.35 72.36 C 204.41 84.23 192.35 93.55 179.12 100.23 C 175.94 101.91 172.35 102.46 168.81 102.75 C 177.02 94.04 188.66 88.63 194.77 77.97 C 198.09 71.28 200.04 63.83 200.34 56.36 Z"/><path d=" M 91.68 124.68 C 96.03 120.68 101.36 118.01 106.53 115.26 C 101.85 122.51 97.29 131.20 99.39 140.08 C 99.87 142.60 100.61 145.05 101.35 147.50 C 108.65 142.40 114.16 133.06 124.11 133.11 C 122.58 135.81 120.53 138.24 119.44 141.17 C 118.21 146.47 119.12 152.77 123.72 156.23 C 129.98 160.79 136.45 165.14 143.38 168.62 C 150.31 172.33 156.62 177.22 161.79 183.15 C 166.07 188.21 168.22 194.58 171.00 200.48 C 173.19 191.88 170.16 182.93 166.66 175.09 C 175.22 181.17 177.49 192.28 177.86 202.14 C 177.48 213.04 170.28 222.68 161.23 228.28 C 161.35 221.99 161.30 215.37 158.14 209.73 C 153.74 199.88 144.17 193.82 134.89 189.15 C 128.34 185.49 121.64 182.08 114.65 179.34 C 105.71 175.66 97.65 169.94 91.31 162.64 C 84.76 155.61 82.32 145.27 84.03 135.92 C 84.62 131.17 88.43 127.81 91.68 124.68 Z"/><path d=" M 127.31 136.27 C 128.86 139.11 130.92 141.77 134.01 143.04 C 143.01 147.33 152.27 152.83 156.92 162.05 C 158.33 165.03 159.27 168.20 160.20 171.36 C 157.48 167.66 154.75 163.82 150.87 161.25 C 144.17 156.22 135.18 154.82 129.33 148.61 C 126.10 145.31 126.73 140.42 127.31 136.27 Z"/><path d=" M 73.58 155.09 C 74.50 148.56 75.45 141.36 80.52 136.59 C 78.27 145.48 79.19 155.63 84.95 163.04 C 93.95 173.74 105.34 183.06 118.89 187.17 C 125.80 190.21 132.57 193.76 138.62 198.30 C 143.87 202.21 147.98 208.29 147.82 215.04 C 148.45 221.06 143.77 226.38 138.48 228.57 C 140.09 224.72 141.03 220.09 138.75 216.30 C 136.13 211.03 130.22 209.11 125.32 206.64 C 118.53 203.80 111.37 201.80 104.90 198.21 C 96.32 193.37 87.89 188.04 80.79 181.17 C 74.67 174.13 73.01 164.14 73.58 155.09 Z"/></g></g></svg>